<svg width="753" height="588" viewBox="0 0 753 588" fill="none" xmlns="http://www.w3.org/2000/svg">
<path d="M44.7117 238.958C-9.28832 179.958 -55.2881 80.4576 164.712 110.958C140 -146.5 342 127.5 342 127.5C342 127.5 656.423 114.267 536.212 190.458C416 266.648 771.712 322.957 751.212 349.957C730.712 376.957 396.712 405.457 563.712 500.457C730.712 595.457 481.712 632.458 362.712 510.958C243.712 389.458 172.354 540.94 118.212 564.958C-14.7881 623.958 109.379 461.124 118.212 438.958C146.212 386.158 177.378 343.624 177.712 332.958C181.712 317.458 92.2116 283.458 44.7117 238.958Z" fill="#F9B530"/>
</svg>
